<svg xmlns="http://www.w3.org/2000/svg" viewBox="0 0 7 9.95"><defs><style>.cls-1{fill:#b2b2b2;}</style></defs><title>Asset 1</title><g id="Layer_2" data-name="Layer 2"><g id="create"><path class="cls-1" d="M3.5,0a3.5,3.5,0,0,0-3,5.34L3.3,9.82a.3.3,0,0,0,.25.13h0a.29.29,0,0,0,.25-.14L6.51,5.29A3.5,3.5,0,0,0,3.5,0ZM6,5,3.54,9.1,1,5A2.86,2.86,0,0,1,.58,3.5a2.92,2.92,0,0,1,5.84,0A3,3,0,0,1,6,5Z"/><path class="cls-1" d="M3.5,1.75A1.75,1.75,0,1,0,5.25,3.5,1.75,1.75,0,0,0,3.5,1.75Zm0,2.92A1.17,1.17,0,1,1,4.67,3.5,1.17,1.17,0,0,1,3.5,4.67Z"/></g></g></svg>